<svg width="228" height="73" viewBox="0 0 228 73" fill="none" xmlns="http://www.w3.org/2000/svg">
<path d="M216.987 57.3746C214.519 52.6996 212.049 48.0274 209.588 43.3524C209.252 42.7159 208.932 42.0739 208.626 41.4235C208.054 40.2172 208.28 39.0079 209.542 38.7185C210.273 38.5487 211.587 39.1627 212.027 39.8297C213.244 41.6752 214.174 43.7126 215.158 45.7027C219.089 53.6658 223.026 61.629 226.863 69.6422C227.244 70.4343 227.163 71.6491 226.832 72.4859C226.687 72.8529 225.222 73.1062 224.627 72.8284C219.491 70.428 214.438 67.8497 209.315 65.4131C204.657 63.196 199.948 61.0846 195.259 58.9371C193.997 58.3592 193.061 57.5338 193.759 56.0576C194.432 54.6341 195.669 54.9424 196.806 55.4619C203.168 58.3596 209.519 61.2795 215.881 64.1827C216.373 64.4077 216.893 64.5772 217.402 64.7744C217.549 64.5992 217.694 64.4213 217.838 64.2489C215.971 62.3814 214.098 60.5194 212.236 58.6463C198.966 45.2872 184.792 32.9819 168.288 23.785C150.927 14.1103 132.438 7.27125 112.596 4.76353C88.6071 1.73429 65.942 6.59106 44.2622 16.9155C29.3216 24.0302 15.9788 33.4934 3.55847 44.3352C3.36383 44.5076 3.16365 44.68 2.97458 44.8579C1.99583 45.7978 0.856156 45.609 0.283759 44.6641C-0.0691243 44.0832 0.0785927 42.6182 0.562401 42.1955C4.85264 38.4666 9.14565 34.7239 13.6749 31.2896C25.6611 22.2048 38.5336 14.6347 52.5732 9.13255C81.8477 -2.33913 111.225 -2.6749 140.966 7.52475C164.039 15.4384 184.382 27.6837 202.321 44.066C206.759 48.1205 211.064 52.3197 215.43 56.4577C215.847 56.8523 216.242 57.2692 216.645 57.6722C216.756 57.5721 216.867 57.472 216.981 57.3746L216.987 57.3746Z" fill="#BFB2A6"/>
</svg>
