<svg width="220" height="98" viewBox="0 0 220 98" fill="none" xmlns="http://www.w3.org/2000/svg">
<path d="M211.613 17.6456C210.043 22.6931 208.469 27.7383 206.904 32.7847C206.69 33.472 206.493 34.1617 206.312 34.857C205.97 36.1476 206.413 37.2952 207.706 37.3489C208.456 37.3821 209.636 36.5379 209.946 35.8018C210.805 33.7649 211.347 31.5916 211.95 29.4552C214.359 20.9073 216.772 12.3583 219.079 3.77849C219.308 2.93007 219.006 1.75058 218.528 0.98844C218.318 0.654116 216.832 0.673043 216.298 1.05498C211.687 4.3545 207.191 7.81366 202.6 11.1462C198.426 14.178 194.183 17.1151 189.966 20.0842C188.832 20.8831 188.062 21.8659 189.018 23.1895C189.94 24.4658 191.1 23.9365 192.122 23.2178C197.847 19.2052 203.557 15.1727 209.281 11.1547C209.723 10.8434 210.203 10.5818 210.667 10.2948C210.844 10.4401 211.019 10.5886 211.193 10.7316C209.698 12.9092 208.197 15.0825 206.71 17.2646C196.107 32.8257 184.423 47.5162 169.88 59.5769C154.583 72.2641 137.656 82.37 118.608 88.465C95.5779 95.8314 72.4068 95.2027 49.2043 89.0183C33.2143 84.7567 18.3655 77.894 4.17148 69.5071C3.94859 69.3733 3.72024 69.2404 3.50182 69.1C2.36766 68.3551 1.28174 68.7491 0.891865 69.7828C0.651197 70.4185 1.06441 71.8317 1.61737 72.1588C6.51734 75.0399 11.4226 77.9342 16.5036 80.482C29.9494 87.2209 43.9895 92.3085 58.7987 95.1496C89.6777 101.073 118.621 96.0287 145.994 80.5607C167.231 68.5598 184.99 52.8 199.629 33.4125C203.251 28.6145 206.715 23.6987 210.251 18.8318C210.588 18.3676 210.9 17.8856 211.222 17.4157C211.35 17.4938 211.478 17.5718 211.608 17.6467L211.613 17.6456Z" fill="#A6B9BF"/>
</svg>
