<svg width="70" height="59" viewBox="0 0 70 59" fill="none" xmlns="http://www.w3.org/2000/svg">
<path d="M27.1076 3.78488C21.8488 1.27411 14.4984 0.0441982 4.65767 0.000532601C3.72959 -0.0120764 2.81971 0.258551 2.04938 0.776325C1.41708 1.20371 0.899497 1.77992 0.542144 2.45427C0.18479 3.12862 -0.00138036 3.88046 7.70532e-06 4.64364V46.2861C7.70532e-06 49.101 2.0028 51.2246 4.65767 51.2246C15.0021 51.2246 25.3785 52.1911 31.5935 58.0656C31.6785 58.1463 31.7854 58.2003 31.9008 58.2208C32.0163 58.2413 32.1352 58.2274 32.2428 58.1809C32.3504 58.1344 32.442 58.0573 32.5062 57.9591C32.5703 57.861 32.6042 57.7462 32.6037 57.6289V8.5619C32.6038 8.23087 32.533 7.90365 32.3959 7.60234C32.2588 7.30103 32.0586 7.03264 31.8089 6.81528C30.3853 5.59822 28.8039 4.57889 27.1076 3.78488ZM67.8156 0.771958C67.0449 0.255473 66.135 -0.0136435 65.2073 0.000532601C55.3665 0.0441982 48.0162 1.26829 42.7574 3.78488C41.0611 4.57743 39.4793 5.59476 38.0546 6.80945C37.8054 7.02713 37.6057 7.29562 37.4688 7.59688C37.332 7.89814 37.2613 8.2252 37.2613 8.55608V57.626C37.2612 57.7387 37.2944 57.8489 37.3568 57.9427C37.4191 58.0366 37.5077 58.11 37.6115 58.1536C37.7154 58.1973 37.8298 58.2094 37.9405 58.1883C38.0512 58.1672 38.1531 58.1139 38.2336 58.035C41.9699 54.3234 48.527 51.2203 65.2131 51.2217C66.4484 51.2217 67.6331 50.731 68.5066 49.8575C69.3801 48.9841 69.8708 47.7994 69.8708 46.5641V4.6451C69.8725 3.8804 69.6859 3.12705 69.3275 2.45157C68.969 1.77608 68.4498 1.19923 67.8156 0.771958Z" fill="#BFBEA6"/>
</svg>
