<svg width="44" height="40" viewBox="0 0 44 40" fill="none" xmlns="http://www.w3.org/2000/svg">
<path d="M3.04281 35.4313L5.80195 36.5844V17.9911L0.798426 30.0572C-0.0457894 32.1574 0.963151 34.5665 3.04281 35.4313ZM43.1945 27.8128L32.9816 3.16583C32.6714 2.42875 32.1544 1.79731 31.493 1.34784C30.8316 0.898384 30.0542 0.650157 29.2547 0.633179C28.7193 0.633179 28.1634 0.715541 27.628 0.942038L12.4527 7.22218C11.4512 7.64124 10.6557 8.43882 10.2393 9.44139C9.82282 10.444 9.81911 11.5704 10.2289 12.5757L20.4419 37.2227C20.861 38.2242 21.6585 39.0197 22.6611 39.4362C23.6637 39.8526 24.7901 39.8563 25.7955 39.4465L40.9502 33.1664C41.9575 32.7539 42.7598 31.9582 43.1807 30.9543C43.6016 29.9503 43.6066 28.8204 43.1945 27.8128ZM14.0588 12.9876C12.9263 12.9876 11.9997 12.061 11.9997 10.9285C11.9997 9.79601 12.9263 8.86943 14.0588 8.86943C15.1913 8.86943 16.1179 9.79601 16.1179 10.9285C16.1179 12.061 15.1913 12.9876 14.0588 12.9876ZM9.94067 35.6373C9.94067 37.9022 11.7938 39.7554 14.0588 39.7554H17.0444L9.94067 22.5828V35.6373Z" fill="white"/>
</svg>
