<svg width="75" height="59" viewBox="0 0 75 59" fill="none" xmlns="http://www.w3.org/2000/svg">
<g clip-path="url(#clip0_73_1586)">
<path d="M71.4641 0H2.64682C1.1828 0 0 1.1828 0 2.64682V55.5832C0 57.0472 1.1828 58.23 2.64682 58.23H71.4641C72.9281 58.23 74.1109 57.0472 74.1109 55.5832V2.64682C74.1109 1.1828 72.9281 0 71.4641 0ZM22.6634 11.9107C25.5832 11.9107 27.957 14.2845 27.957 17.2043C27.957 20.1241 25.5832 22.498 22.6634 22.498C19.7436 22.498 17.3697 20.1241 17.3697 17.2043C17.3697 14.2845 19.7436 11.9107 22.6634 11.9107ZM65.1696 48.0646C65.0492 48.1658 64.8969 48.2215 64.7395 48.2217H9.36312C8.99918 48.2217 8.70141 47.924 8.70141 47.56C8.70141 47.4029 8.75931 47.254 8.85857 47.1299L22.9446 30.4219C23.1762 30.1406 23.598 30.1076 23.8793 30.3392C23.9041 30.364 23.9372 30.3888 23.962 30.4219L32.1837 40.182L45.2606 24.6733C45.4922 24.3921 45.914 24.359 46.1952 24.5906C46.2201 24.6154 46.2531 24.6402 46.278 24.6733L65.2689 47.1382C65.4839 47.4111 65.4509 47.833 65.1696 48.0646Z" fill="#A6B9BF"/>
</g>
<defs>
<clipPath id="clip0_73_1586">
<rect width="74.1109" height="58.23" rx="10" fill="white"/>
</clipPath>
</defs>
</svg>
