<svg width="42" height="42" viewBox="0 0 42 42" fill="none" xmlns="http://www.w3.org/2000/svg">
<path fill-rule="evenodd" clip-rule="evenodd" d="M21 41.6943C23.6921 41.6943 26.3578 41.1641 28.845 40.1339C31.3322 39.1036 33.5921 37.5936 35.4957 35.69C37.3993 33.7864 38.9093 31.5265 39.9395 29.0393C40.9698 26.5522 41.5 23.8864 41.5 21.1943C41.5 18.5022 40.9698 15.8365 39.9395 13.3493C38.9093 10.8622 37.3993 8.60225 35.4957 6.69865C33.5921 4.79505 31.3322 3.28503 28.845 2.25481C26.3578 1.22458 23.6921 0.694336 21 0.694336C15.5631 0.694336 10.3488 2.85415 6.50431 6.69865C2.65982 10.5431 0.5 15.7574 0.5 21.1943C0.5 26.6313 2.65982 31.8455 6.50431 35.69C10.3488 39.5345 15.5631 41.6943 21 41.6943ZM18.2279 12.0604L31.0837 19.2036C31.4386 19.4009 31.7343 19.6895 31.9402 20.0395C32.1461 20.3896 32.2547 20.7883 32.2547 21.1943C32.2547 21.6004 32.1461 21.9991 31.9402 22.3491C31.7343 22.6992 31.4386 22.9878 31.0837 23.1851L18.2279 30.3282C17.8117 30.5596 17.3422 30.6782 16.866 30.6723C16.3898 30.6663 15.9234 30.5361 15.513 30.2944C15.1026 30.0528 14.7625 29.7081 14.5264 29.2945C14.2902 28.8809 14.1662 28.4128 14.1667 27.9366V14.4521C14.1662 13.9759 14.2902 13.5078 14.5264 13.0942C14.7625 12.6806 15.1026 12.3359 15.513 12.0942C15.9234 11.8526 16.3898 11.7223 16.866 11.7164C17.3422 11.7105 17.8117 11.8291 18.2279 12.0604Z" fill="white"/>
</svg>
