<svg width="61" height="59" viewBox="0 0 61 59" fill="none" xmlns="http://www.w3.org/2000/svg">
<path d="M12.058 49.0034L2.56232 58.4991C2.0599 59.0015 1.50725 59.1271 0.904348 58.8759C0.301449 58.6247 0 58.1474 0 57.444V6.80048C0 5.1425 0.590841 3.72368 1.77252 2.54401C2.95421 1.36434 4.37303 0.773494 6.02899 0.771484H54.2609C55.9189 0.771484 57.3387 1.36233 58.5204 2.54401C59.7021 3.72569 60.2919 5.14451 60.2899 6.80048V42.9744C60.2899 44.6324 59.7001 46.0522 58.5204 47.2339C57.3407 48.4156 55.9209 49.0054 54.2609 49.0034H12.058ZM30.145 32.3483L35.8725 35.815C36.4252 36.1667 36.9778 36.1546 37.5305 35.7788C38.0831 35.403 38.2841 34.8875 38.1334 34.2324L36.6261 27.6759L41.7508 23.2295C42.2532 22.7773 42.4039 22.2377 42.2029 21.6107C42.002 20.9837 41.5498 20.644 40.8464 20.5918L34.1392 20.0643L31.5015 13.8845C31.2503 13.2816 30.7981 12.9802 30.145 12.9802C29.4918 12.9802 29.0396 13.2816 28.7884 13.8845L26.1507 20.0643L19.4435 20.5918C18.7401 20.642 18.2879 20.9817 18.087 21.6107C17.886 22.2397 18.0367 22.7793 18.5391 23.2295L23.6638 27.6759L22.1565 34.2324C22.0058 34.8855 22.2068 35.401 22.7594 35.7788C23.3121 36.1566 23.8648 36.1687 24.4174 35.815L30.145 32.3483Z" fill="#ABBFA6"/>
</svg>
