<svg width="64" height="59" viewBox="0 0 64 59" fill="none" xmlns="http://www.w3.org/2000/svg">
<path d="M3.78464 51.987L7.89127 53.7032V26.0294L0.44417 43.9882C-0.812338 47.1142 0.689342 50.6998 3.78464 51.987ZM63.5454 40.6477L48.3447 3.96386C47.8831 2.86681 47.1136 1.92699 46.1291 1.25802C45.1447 0.58906 43.9876 0.219606 42.7977 0.194336C42.0009 0.194336 41.1734 0.316922 40.3766 0.654034L17.7901 10.0012C16.2995 10.6249 15.1155 11.812 14.4957 13.3042C13.8758 14.7964 13.8703 16.4731 14.4803 17.9693L29.681 54.6532C30.3047 56.1438 31.4918 57.3278 32.984 57.9476C34.4762 58.5675 36.1528 58.573 37.649 57.963L60.2049 48.6158C61.7042 48.0018 62.8984 46.8176 63.5248 45.3234C64.1512 43.8292 64.1586 42.1474 63.5454 40.6477ZM20.1805 18.5823C18.495 18.5823 17.1159 17.2032 17.1159 15.5176C17.1159 13.832 18.495 12.4529 20.1805 12.4529C21.8661 12.4529 23.2452 13.832 23.2452 15.5176C23.2452 17.2032 21.8661 18.5823 20.1805 18.5823ZM14.0512 52.2934C14.0512 55.6645 16.8094 58.4227 20.1805 58.4227H24.6243L14.0512 32.8635V52.2934Z" fill="#BFB2A6"/>
</svg>
